<svg width="2987" height="360" viewBox="0 0 2987 360" fill="none" xmlns="http://www.w3.org/2000/svg">
<path d="M0.5 355C2.83333 355 5.16667 352.667 7.5 348C9.83333 343.333 11 335.667 11 325V85C11 74.3333 9.83333 66.8333 7.5 62.5C5.16667 57.8333 2.83333 55.3333 0.5 55H289V68.5L299 123C290.667 119.333 276 115.5 255 111.5C234 107.167 208.667 105 179 105H101.5C91.5 105 85.5 105.833 83.5 107.5C81.8333 108.833 81 113 81 120V163.5C81 170.833 81.8333 175.167 83.5 176.5C85.5 177.833 91.3333 178.5 101 178.5H176.5C195.833 178.5 211.333 177.5 223 175.5C235 173.167 242.833 170.833 246.5 168.5C245.167 174.167 243.667 180.833 242 188.5C240.333 196.167 239 203.5 238 210.5C237 217.5 236.5 223.5 236.5 228.5H101C91.3333 228.5 85.5 229.167 83.5 230.5C81.8333 231.5 81 235.833 81 243.5V325C81 336 82.1667 343.833 84.5 348.5C86.8333 352.833 89.1667 355 91.5 355H0.5Z" fill="#546259"/>
<path d="M333.961 355C336.294 355 338.628 352.667 340.961 348C343.294 343.333 344.461 335.667 344.461 325V40C344.461 29.3333 343.294 21.6667 340.961 17C338.961 12.3333 336.794 9.99998 334.461 9.99998C353.794 9.99998 369.794 8.99999 382.461 6.99999C395.461 4.66667 404.128 2.33334 408.461 0V325C408.461 335.667 409.461 343.333 411.461 348C413.794 352.667 416.128 355 418.461 355H333.961Z" fill="#546259"/>
<path d="M588.238 360C554.905 360 528.738 354.667 509.738 344C491.072 333.333 477.905 318.833 470.238 300.5C462.905 282.167 459.238 261.5 459.238 238.5C459.238 215.167 463.072 194.333 470.738 176C478.738 157.667 492.072 143.167 510.738 132.5C529.405 121.5 555.238 116 588.238 116C621.238 116 647.072 121.5 665.738 132.5C684.405 143.167 697.572 157.667 705.238 176C713.238 194.333 717.238 215.167 717.238 238.5C717.238 261.5 713.405 282.167 705.738 300.5C698.405 318.833 685.405 333.333 666.738 344C648.072 354.667 621.905 360 588.238 360ZM588.238 314.5C604.238 314.5 616.905 312 626.238 307C635.905 302 642.738 294 646.738 283C650.738 271.667 652.738 256.833 652.738 238.5C652.738 220.167 650.738 205.333 646.738 194C642.738 182.667 635.905 174.333 626.238 169C616.905 163.667 604.072 161 587.738 161C571.738 161 559.072 163.833 549.738 169.5C540.405 174.833 533.572 183.333 529.238 195C525.238 206.333 523.238 221 523.238 239C523.238 256.667 525.238 271.167 529.238 282.5C533.238 293.5 539.905 301.667 549.238 307C558.905 312 571.905 314.5 588.238 314.5Z" fill="#546259"/>
<path d="M812.652 355C814.986 355 816.486 352.833 817.152 348.5C818.152 344.167 816.652 336.333 812.652 325C811.319 320.667 808.319 313 803.652 302C799.319 291 793.986 278.333 787.652 264C781.652 249.667 775.486 235.167 769.152 220.5C762.819 205.5 756.986 192 751.652 180C746.652 167.667 742.652 158.333 739.652 152C734.986 141 730.152 133.167 725.152 128.5C720.486 123.5 716.819 121 714.152 121H809.652C807.319 121 805.652 123.333 804.652 128C803.986 132.667 805.652 140.667 809.652 152C811.652 158 814.652 166.833 818.652 178.5C822.652 189.833 827.152 203 832.152 218C837.486 232.667 842.819 247.667 848.152 263C853.819 278.333 858.986 292.5 863.652 305.5H864.152C868.152 292.167 872.486 277.833 877.152 262.5C882.152 246.833 886.819 231.5 891.152 216.5C895.819 201.5 899.819 188.333 903.152 177C906.819 165.333 909.486 156.667 911.152 151C914.819 140 916.152 132.333 915.152 128C914.486 123.333 913.152 121 911.152 121H1011.65C1009.32 121 1007.82 123.333 1007.15 128C1006.49 132.667 1007.99 140.667 1011.65 152C1013.65 158 1016.49 166.833 1020.15 178.5C1024.15 189.833 1028.32 203 1032.65 218C1037.32 232.667 1041.99 247.667 1046.65 263C1051.32 278.333 1055.65 292.5 1059.65 305.5H1060.15C1065.15 292.167 1070.49 277.833 1076.15 262.5C1082.15 246.833 1087.99 231.5 1093.65 216.5C1099.32 201.5 1104.32 188.333 1108.65 177C1112.99 165.333 1115.99 156.667 1117.65 151C1120.99 140.333 1122.32 132.667 1121.65 128C1120.99 123.333 1119.65 121 1117.65 121H1210.15C1207.82 121 1204.49 123.167 1200.15 127.5C1195.82 131.833 1191.32 139.5 1186.65 150.5C1183.99 156.5 1179.82 165.333 1174.15 177C1168.82 188.667 1162.82 201.667 1156.15 216C1149.82 230.333 1143.32 244.667 1136.65 259C1130.32 273.333 1124.65 286.333 1119.65 298C1114.99 309.667 1111.65 318.667 1109.65 325C1106.65 335.667 1105.49 343.333 1106.15 348C1106.82 352.667 1107.99 355 1109.65 355H1008.65C1010.99 355 1012.49 352.667 1013.15 348C1013.82 343.333 1012.32 335.667 1008.65 325C1007.65 322 1005.49 315.167 1002.15 304.5C999.152 293.833 995.319 281 990.652 266C986.319 250.667 981.652 234.833 976.652 218.5C971.652 202.167 966.986 186.667 962.652 172H961.152C956.486 186 951.652 201 946.652 217C941.652 232.667 936.819 248 932.152 263C927.819 277.667 923.819 290.667 920.152 302C916.819 313 914.652 320.667 913.652 325C910.652 336 909.486 343.833 910.152 348.5C910.819 352.833 911.986 355 913.652 355H812.652Z" fill="#546259"/>
<path d="M1353.54 355C1355.87 355 1358.04 352.667 1360.04 348C1362.37 343.333 1363.54 335.667 1363.54 325V85C1363.54 74.3333 1362.37 66.8333 1360.04 62.5C1357.71 57.8333 1355.37 55.3333 1353.04 55H1517.04C1546.04 55 1569.21 59.1667 1586.54 67.5C1604.21 75.5 1617.04 87 1625.04 102C1633.04 117 1637.04 134.833 1637.04 155.5C1637.04 176.5 1633.04 194.833 1625.04 210.5C1617.04 225.833 1604.21 237.667 1586.54 246C1569.21 254 1546.04 258 1517.04 258H1433.54V325C1433.54 335.667 1434.71 343.333 1437.04 348C1439.37 352.667 1441.71 355 1444.04 355H1353.54ZM1454.04 208H1493.04C1513.37 208 1528.87 206 1539.54 202C1550.54 198 1558.04 192.167 1562.04 184.5C1566.04 176.5 1568.04 166.833 1568.04 155.5C1568.04 144.167 1565.71 134.833 1561.04 127.5C1556.71 120.167 1549.37 114.833 1539.04 111.5C1528.71 107.833 1514.54 106 1496.54 106H1454.04C1443.71 106 1437.71 106.667 1436.04 108C1434.37 109 1433.54 112.833 1433.54 119.5V194C1433.54 200.667 1434.37 204.667 1436.04 206C1437.71 207.333 1443.71 208 1454.04 208Z" fill="#546259"/>
<path d="M1677.16 355C1679.5 355 1681.66 352.667 1683.66 348C1686 343.333 1687.16 335.667 1687.16 325V151C1687.16 140.333 1686 132.667 1683.66 128C1681.66 123.333 1679.5 121 1677.16 121H1751.66V325C1751.66 335.667 1752.66 343.333 1754.66 348C1757 352.667 1759.33 355 1761.66 355H1677.16ZM1714.16 79.5C1702.83 79.5 1693.83 76.5 1687.16 70.5C1680.5 64.1667 1677.16 55.8333 1677.16 45.5C1677.16 35.1667 1680.33 27 1686.66 21C1693.33 14.6667 1702.5 11.5 1714.16 11.5C1725.83 11.5 1734.83 14.6667 1741.16 21C1747.83 27 1751.16 35.1667 1751.16 45.5C1751.16 55.8333 1747.83 64.1667 1741.16 70.5C1734.83 76.5 1725.83 79.5 1714.16 79.5Z" fill="#546259"/>
<path d="M1808.57 355C1810.9 355 1813.24 352.667 1815.57 348C1817.9 343.333 1819.07 335.667 1819.07 325V40C1819.07 29.3333 1817.9 21.6667 1815.57 17C1813.57 12.3333 1811.4 9.99998 1809.07 9.99998C1828.4 9.99998 1844.4 8.99999 1857.07 6.99999C1870.07 4.66667 1878.74 2.33334 1883.07 0V325C1883.07 335.667 1884.07 343.333 1886.07 348C1888.4 352.667 1890.74 355 1893.07 355H1808.57Z" fill="#546259"/>
<path d="M2036.35 360C2004.35 360 1979.85 353.833 1962.85 341.5C1946.18 329.167 1937.85 310.5 1937.85 285.5C1937.85 268.167 1942.18 253.833 1950.85 242.5C1959.85 231.167 1972.35 222.667 1988.35 217C2004.35 211.333 2023.35 208.5 2045.35 208.5C2061.35 208.5 2075.01 209.833 2086.35 212.5C2098.01 215.167 2107.35 218.167 2114.35 221.5C2121.68 224.5 2126.51 226.833 2128.85 228.5C2128.85 212.5 2127.01 199.667 2123.35 190C2120.01 180 2113.85 172.667 2104.85 168C2096.18 163.333 2084.18 161 2068.85 161C2048.51 161 2030.51 163.167 2014.85 167.5C1999.51 171.5 1987.01 176.167 1977.35 181.5C1967.68 186.833 1961.18 191 1957.85 194V181L1952.85 135.5C1955.51 134.167 1961.85 132 1971.85 129C1981.85 126 1995.35 123.167 2012.35 120.5C2029.35 117.5 2049.51 116 2072.85 116C2104.18 116 2128.51 120.5 2145.85 129.5C2163.51 138.5 2175.85 151.667 2182.85 169C2190.18 186 2193.85 206.833 2193.85 231.5V325C2193.85 334.333 2194.85 341.167 2196.85 345.5C2199.18 349.5 2201.51 352.667 2203.85 355H2129.35V343L2130.35 333.5L2129.35 332.5C2125.68 336.167 2121.01 339.667 2115.35 343C2109.68 346.333 2102.85 349.333 2094.85 352C2087.18 354.333 2078.35 356.167 2068.35 357.5C2058.68 359.167 2048.01 360 2036.35 360ZM2057.35 314.5C2072.68 314.5 2085.68 313.167 2096.35 310.5C2107.01 307.833 2115.18 304.167 2120.85 299.5C2126.51 294.833 2129.35 289.5 2129.35 283.5C2129.35 274.833 2123.35 267.667 2111.35 262C2099.35 256.333 2082.18 253.5 2059.85 253.5C2038.51 253.5 2023.51 256.5 2014.85 262.5C2006.18 268.167 2001.85 275.833 2001.85 285.5C2001.85 296.5 2006.51 304.167 2015.85 308.5C2025.18 312.5 2039.01 314.5 2057.35 314.5Z" fill="#546259"/>
<path d="M2343.52 360C2320.52 360 2303.86 355.167 2293.52 345.5C2283.19 335.5 2278.02 319.333 2278.02 297V166H2233.02V121C2248.36 121 2260.36 119.167 2269.02 115.5C2277.69 111.5 2283.86 104.667 2287.52 95C2291.19 85.3333 2293.02 71.8333 2293.02 54.5H2342.52V121H2431.02C2428.69 126.667 2426.36 133.833 2424.02 142.5C2422.02 151.167 2421.02 159 2421.02 166H2342.52V276C2342.52 291.333 2344.19 301.667 2347.52 307C2350.86 312 2356.86 314.5 2365.52 314.5C2372.19 314.5 2379.02 312.667 2386.02 309C2393.02 305 2399.52 300.333 2405.52 295C2411.86 289.333 2416.86 283.833 2420.52 278.5V294L2425.52 336C2421.86 339.333 2416.19 343 2408.52 347C2400.86 350.667 2391.52 353.667 2380.52 356C2369.52 358.667 2357.19 360 2343.52 360Z" fill="#546259"/>
<path d="M2585.91 360C2559.58 360 2537.75 357.167 2520.41 351.5C2503.08 345.833 2489.41 337.667 2479.41 327C2469.41 316.333 2462.25 303.5 2457.91 288.5C2453.91 273.5 2451.91 256.833 2451.91 238.5C2451.91 200.833 2462.41 171 2483.41 149C2504.75 127 2536.91 116 2579.91 116C2604.91 116 2625.25 119.5 2640.91 126.5C2656.58 133.167 2668.41 142.333 2676.41 154C2684.75 165.333 2690.41 177.833 2693.41 191.5C2696.41 205.167 2697.91 218.833 2697.91 232.5V256C2697.91 255 2693.25 254 2683.91 253C2674.91 251.667 2659.58 251 2637.91 251H2516.91C2516.91 271.667 2523.08 287.5 2535.41 298.5C2547.75 309.167 2567.08 314.5 2593.41 314.5C2616.08 314.5 2635.75 311.833 2652.41 306.5C2669.08 300.833 2680.75 295.5 2687.41 290.5V303.5L2692.41 340C2685.75 344.333 2673.25 348.833 2654.91 353.5C2636.91 357.833 2613.91 360 2585.91 360ZM2535.91 211.5H2633.91C2633.91 203.833 2632.25 196.167 2628.91 188.5C2625.58 180.5 2619.91 174 2611.91 169C2604.25 163.667 2593.58 161 2579.91 161C2566.91 161 2556.08 163 2547.41 167C2538.75 171 2532.25 176.167 2527.91 182.5C2523.91 188.5 2521.91 194.833 2521.91 201.5C2521.91 204.833 2522.91 207.333 2524.91 209C2526.91 210.667 2530.58 211.5 2535.91 211.5Z" fill="#546259"/>
<path d="M2867.14 360C2837.14 360 2811.81 358.333 2791.14 355C2770.47 351.667 2756.31 348.333 2748.64 345V331.5L2738.14 284.5C2746.81 291.167 2762.64 297.833 2785.64 304.5C2808.64 311.167 2836.81 314.5 2870.14 314.5C2884.14 314.5 2894.81 313.667 2902.14 312C2909.81 310 2914.97 307.333 2917.64 304C2920.64 300.333 2922.14 295.833 2922.14 290.5C2922.14 284.5 2919.97 279.833 2915.64 276.5C2911.31 273.167 2903.31 270.5 2891.64 268.5C2880.31 266.167 2863.64 263.5 2841.64 260.5C2814.97 257.167 2794.14 252.5 2779.14 246.5C2764.14 240.167 2753.64 232.167 2747.64 222.5C2741.64 212.5 2738.64 200.5 2738.64 186.5C2738.64 173.833 2741.64 162.167 2747.64 151.5C2753.97 140.833 2765.14 132.333 2781.14 126C2797.14 119.333 2819.64 116 2848.64 116C2876.97 116 2901.47 117.667 2922.14 121C2943.14 124.333 2957.97 127.667 2966.64 131V144.5L2976.64 186.5C2968.64 181.167 2953.47 175.667 2931.14 170C2909.14 164.333 2881.47 161.5 2848.14 161.5C2831.14 161.5 2819.31 163.333 2812.64 167C2806.31 170.333 2803.14 175.667 2803.14 183C2803.14 187 2803.97 190.5 2805.64 193.5C2807.64 196.167 2811.47 198.667 2817.14 201C2822.81 203.333 2830.97 205.5 2841.64 207.5C2852.64 209.5 2866.97 211.5 2884.64 213.5C2912.97 217.167 2934.31 222.167 2948.64 228.5C2963.31 234.833 2973.14 242.833 2978.14 252.5C2983.47 261.833 2986.14 273.167 2986.14 286.5C2986.14 302.167 2981.97 315.5 2973.64 326.5C2965.64 337.5 2952.81 345.833 2935.14 351.5C2917.81 357.167 2895.14 360 2867.14 360Z" fill="#546259"/>
</svg>
